<svg id="svg" version="1.1" xmlns="http://www.w3.org/2000/svg" xmlns:xlink="http://www.w3.org/1999/xlink" width="400" height="357.7235772357724" viewBox="0, 0, 400,357.7235772357724"><g id="svgg"><path id="path0" d="M40.936 193.330 C 40.822 193.628,40.454 193.764,40.048 193.658 C 39.668 193.558,39.356 193.656,39.356 193.876 C 39.356 194.096,39.235 194.256,39.088 194.233 C 38.420 194.128,37.899 194.302,38.067 194.574 C 38.168 194.738,38.057 194.887,37.820 194.905 C 36.597 194.998,35.283 195.435,34.815 195.903 C 34.526 196.192,34.141 196.337,33.960 196.225 C 33.780 196.114,33.629 196.394,33.626 196.848 C 33.622 197.513,33.553 197.570,33.274 197.138 C 32.980 196.683,32.926 196.700,32.921 197.248 C 32.918 197.604,32.793 197.820,32.644 197.727 C 32.494 197.635,32.061 197.786,31.681 198.064 C 31.301 198.342,31.182 198.569,31.416 198.569 C 31.651 198.569,31.843 198.725,31.843 198.915 C 31.843 199.106,31.590 199.165,31.281 199.046 C 30.919 198.907,30.283 199.293,29.493 200.131 C 28.818 200.846,28.359 201.431,28.472 201.431 C 28.585 201.431,28.179 201.930,27.569 202.540 C 26.959 203.149,26.483 203.834,26.511 204.060 C 26.645 205.167,26.479 205.567,26.118 205.009 C 25.849 204.592,25.770 204.697,25.766 205.477 C 25.762 206.153,25.623 206.397,25.342 206.224 C 25.060 206.050,24.998 206.160,25.152 206.560 C 25.277 206.888,25.219 207.156,25.022 207.156 C 24.482 207.156,24.000 208.699,24.389 209.182 C 24.612 209.460,24.449 209.864,23.900 210.397 C 23.447 210.837,23.278 211.083,23.524 210.944 C 23.770 210.805,23.971 210.862,23.971 211.070 C 23.971 211.279,23.792 211.449,23.572 211.449 C 23.338 211.449,23.244 211.823,23.345 212.352 C 23.440 212.849,23.376 213.343,23.202 213.450 C 23.028 213.557,22.979 213.795,23.092 213.978 C 23.205 214.161,23.191 214.484,23.061 214.695 C 22.660 215.344,22.675 256.150,23.077 256.351 C 23.300 256.462,23.281 256.603,23.025 256.726 C 22.611 256.924,22.909 258.339,23.688 259.876 C 23.918 260.329,23.904 260.465,23.644 260.305 C 23.151 260.000,23.565 261.228,24.120 261.717 C 24.344 261.914,24.525 262.317,24.524 262.612 C 24.521 263.270,25.808 265.474,26.195 265.474 C 26.350 265.474,26.476 265.796,26.476 266.190 C 26.476 266.583,26.637 266.905,26.834 266.905 C 27.030 266.905,27.191 267.190,27.191 267.538 C 27.191 267.886,27.634 268.445,28.175 268.781 C 28.716 269.116,28.932 269.395,28.654 269.400 C 28.376 269.405,28.982 270.222,30.002 271.216 C 31.022 272.209,32.002 272.931,32.181 272.820 C 32.360 272.710,32.610 272.946,32.737 273.345 C 32.864 273.745,33.117 273.979,33.299 273.866 C 33.482 273.753,33.631 273.930,33.631 274.259 C 33.631 274.719,33.877 274.822,34.696 274.701 C 35.570 274.573,35.687 274.634,35.351 275.039 C 35.126 275.310,35.089 275.504,35.270 275.470 C 36.026 275.326,36.521 275.517,36.303 275.868 C 36.156 276.106,36.445 276.205,37.087 276.137 C 37.695 276.072,38.074 276.190,38.029 276.431 C 37.988 276.652,38.629 276.923,39.453 277.034 C 40.277 277.144,41.006 277.402,41.074 277.606 C 41.243 278.112,110.555 278.144,110.555 277.638 C 110.555 277.441,111.204 277.281,111.997 277.281 C 112.983 277.281,113.508 277.102,113.657 276.714 C 113.802 276.335,113.956 276.280,114.121 276.547 C 114.286 276.813,114.658 276.668,115.234 276.114 C 115.711 275.656,116.342 275.291,116.637 275.304 C 117.437 275.338,118.094 274.665,117.581 274.335 C 117.351 274.186,117.594 274.069,118.137 274.066 C 118.723 274.063,119.319 273.749,119.658 273.266 C 119.964 272.828,120.215 272.612,120.215 272.785 C 120.215 272.957,120.608 272.641,121.089 272.082 C 121.569 271.522,121.893 270.952,121.808 270.814 C 121.723 270.677,121.990 270.476,122.401 270.369 C 122.813 270.261,123.044 270.003,122.915 269.796 C 122.773 269.565,122.900 269.502,123.241 269.632 C 123.649 269.789,123.740 269.689,123.578 269.267 C 123.407 268.822,123.504 268.743,123.990 268.930 C 124.427 269.097,124.544 269.042,124.365 268.752 C 124.217 268.513,124.346 268.239,124.662 268.117 C 124.969 268.000,125.134 267.765,125.030 267.596 C 124.925 267.427,125.168 266.961,125.568 266.560 C 125.969 266.160,126.297 265.590,126.297 265.295 C 126.297 265.000,126.498 264.756,126.744 264.753 C 127.042 264.749,127.013 264.632,126.655 264.401 C 126.265 264.149,126.246 264.052,126.586 264.048 C 126.844 264.045,126.967 263.901,126.860 263.727 C 126.752 263.554,126.979 263.012,127.363 262.523 C 127.748 262.034,127.960 261.532,127.836 261.407 C 127.711 261.283,127.797 261.181,128.026 261.181 C 128.256 261.181,128.444 260.859,128.444 260.465 C 128.444 260.072,128.595 259.750,128.779 259.750 C 128.963 259.750,129.105 259.087,129.094 258.277 C 129.083 257.466,129.228 256.702,129.417 256.577 C 129.801 256.324,129.836 253.292,129.452 253.529 C 129.318 253.611,129.105 253.511,128.978 253.306 C 128.852 253.102,128.961 252.978,129.222 253.032 C 129.782 253.149,129.959 250.052,129.467 248.727 C 129.270 248.195,129.288 247.980,129.518 248.122 C 129.714 248.244,129.875 248.101,129.875 247.806 C 129.875 247.511,129.711 247.168,129.511 247.045 C 129.311 246.921,129.240 246.670,129.353 246.487 C 129.467 246.304,129.417 246.154,129.244 246.154 C 129.071 246.154,128.952 245.526,128.981 244.758 C 129.018 243.777,128.901 243.413,128.588 243.533 C 128.292 243.647,128.176 243.402,128.242 242.801 C 128.297 242.304,128.132 241.817,127.876 241.719 C 127.591 241.610,127.477 241.176,127.582 240.599 C 127.689 240.005,127.616 239.741,127.382 239.885 C 127.179 240.011,127.013 239.928,127.013 239.701 C 127.013 239.473,126.675 238.814,126.264 238.236 C 125.852 237.657,125.605 236.949,125.715 236.663 C 125.842 236.330,125.531 235.943,124.854 235.593 C 124.270 235.291,123.792 234.958,123.792 234.853 C 123.792 234.748,123.953 234.762,124.150 234.884 C 124.347 235.005,124.508 234.844,124.508 234.526 C 124.508 234.208,124.347 234.047,124.150 234.168 C 123.953 234.290,123.792 234.121,123.792 233.793 C 123.792 233.410,123.601 233.271,123.256 233.403 C 122.933 233.527,122.719 233.405,122.719 233.096 C 122.719 232.814,122.393 232.409,121.994 232.195 C 121.594 231.981,121.348 231.677,121.446 231.519 C 121.543 231.361,121.226 231.051,120.740 230.829 C 120.254 230.608,119.857 230.165,119.857 229.844 C 119.857 229.473,119.662 229.336,119.320 229.467 C 119.005 229.588,118.784 229.472,118.784 229.186 C 118.784 228.686,118.068 228.260,116.831 228.023 C 116.446 227.949,116.016 227.703,115.876 227.476 C 115.541 226.934,114.490 226.787,114.490 227.283 C 114.490 227.495,114.369 227.548,114.222 227.400 C 114.074 227.253,113.951 226.944,113.947 226.714 C 113.944 226.485,113.591 226.309,113.163 226.323 C 112.736 226.337,112.416 226.176,112.454 225.965 C 112.495 225.736,111.848 225.584,110.851 225.587 C 109.932 225.590,109.207 225.432,109.241 225.236 C 109.326 224.739,106.500 224.688,106.177 225.180 C 105.991 225.464,105.913 225.450,105.909 225.134 C 105.900 224.443,73.957 224.486,73.383 225.178 C 73.095 225.525,73.003 228.397,73.071 234.928 L 73.166 244.186 86.583 244.365 C 93.962 244.463,100.201 244.674,100.446 244.832 C 100.691 244.991,101.230 245.186,101.644 245.266 C 102.409 245.413,103.757 246.713,103.757 247.303 C 103.757 247.481,103.884 247.548,104.040 247.452 C 104.196 247.356,104.350 247.625,104.382 248.052 C 104.414 248.478,104.609 248.883,104.814 248.951 C 105.020 249.020,105.188 249.877,105.188 250.856 C 105.188 251.952,105.050 252.551,104.830 252.415 C 104.626 252.289,104.472 252.597,104.472 253.131 C 104.472 253.664,104.318 253.972,104.114 253.846 C 103.918 253.725,103.757 253.937,103.757 254.318 C 103.757 254.699,103.515 255.211,103.220 255.456 C 102.925 255.701,102.683 255.782,102.683 255.635 C 102.683 255.488,102.444 255.568,102.151 255.811 C 101.858 256.054,101.690 256.369,101.777 256.510 C 101.865 256.652,101.742 256.779,101.505 256.793 C 101.268 256.807,100.510 256.927,99.821 257.062 C 99.129 257.196,98.754 257.172,98.982 257.007 C 99.209 256.843,88.880 256.708,76.029 256.708 C 63.177 256.708,52.848 256.827,53.075 256.971 C 53.345 257.143,53.278 257.236,52.883 257.240 C 52.551 257.243,52.172 257.073,52.042 256.863 C 51.912 256.653,51.581 256.567,51.305 256.673 C 51.030 256.778,50.805 256.714,50.805 256.530 C 50.805 256.345,50.597 256.274,50.342 256.372 C 49.881 256.549,48.301 255.030,48.301 254.410 C 48.301 254.231,48.131 254.028,47.923 253.959 C 47.532 253.829,47.302 253.012,47.255 251.589 C 47.240 251.135,47.106 250.837,46.959 250.929 C 46.811 251.020,46.691 244.041,46.691 235.420 C 46.691 226.800,46.793 219.810,46.919 219.887 C 47.044 219.965,47.233 219.587,47.338 219.048 C 47.443 218.509,47.586 217.816,47.657 217.508 C 47.841 216.712,49.224 215.027,49.694 215.027 C 49.911 215.027,50.092 214.826,50.095 214.580 C 50.099 214.252,50.183 214.263,50.409 214.620 C 50.605 214.929,50.767 214.966,50.851 214.720 C 50.924 214.507,51.306 214.282,51.699 214.222 C 52.093 214.161,52.641 213.971,52.918 213.798 C 53.260 213.585,53.339 213.616,53.167 213.894 C 52.978 214.200,62.079 214.304,89.248 214.308 C 125.160 214.312,125.581 214.304,125.581 213.607 C 125.581 213.128,125.753 212.968,126.118 213.109 C 126.671 213.321,126.974 194.808,126.440 193.416 C 126.247 192.913,122.114 192.855,85.451 192.847 C 54.554 192.841,44.739 192.939,44.934 193.254 C 45.102 193.526,45.034 193.574,44.740 193.392 C 43.839 192.835,41.143 192.791,40.936 193.330 M141.050 203.478 L 141.145 214.132 180.143 214.215 C 201.592 214.261,219.352 214.301,219.610 214.305 C 219.867 214.308,219.979 214.472,219.857 214.669 C 219.735 214.866,219.967 215.027,220.372 215.027 C 220.778 215.027,221.109 215.177,221.109 215.361 C 221.109 215.544,221.433 215.797,221.830 215.923 C 222.226 216.049,222.476 216.272,222.386 216.419 C 222.295 216.565,222.534 216.911,222.917 217.187 C 223.677 217.735,223.892 218.457,223.166 218.020 C 222.894 217.857,222.923 218.003,223.240 218.393 C 223.777 219.054,224.093 220.153,223.672 219.893 C 223.541 219.812,223.435 226.800,223.435 235.420 C 223.435 244.041,223.555 251.020,223.703 250.929 C 223.851 250.837,223.971 250.933,223.971 251.142 C 223.971 251.350,223.820 251.521,223.634 251.521 C 223.449 251.521,223.359 251.843,223.435 252.236 C 223.510 252.630,223.436 252.952,223.269 252.952 C 223.102 252.952,223.050 253.276,223.154 253.673 C 223.299 254.227,223.208 254.342,222.762 254.171 C 222.443 254.049,222.162 254.127,222.138 254.345 C 222.113 254.562,222.069 254.942,222.040 255.188 C 222.011 255.434,221.693 255.584,221.334 255.522 C 220.974 255.459,220.774 255.561,220.889 255.748 C 221.466 256.681,217.297 256.844,192.015 256.876 C 177.656 256.894,165.810 256.969,165.691 257.043 C 165.571 257.117,165.518 250.314,165.571 241.926 C 165.625 233.537,165.558 226.428,165.423 226.128 C 165.288 225.827,165.164 225.461,165.147 225.313 C 165.130 225.165,164.996 225.045,164.848 225.045 C 164.700 225.045,159.267 225.045,152.773 225.045 L 140.966 225.045 140.966 251.527 L 140.966 278.009 184.505 277.989 C 217.150 277.975,228.171 277.865,228.548 277.552 C 228.825 277.322,229.698 277.181,230.487 277.238 C 231.357 277.301,231.837 277.203,231.706 276.991 C 231.586 276.798,231.738 276.545,232.042 276.428 C 232.406 276.288,232.519 276.368,232.371 276.659 C 232.248 276.903,232.360 276.846,232.621 276.534 C 232.882 276.221,233.296 276.034,233.542 276.116 C 233.788 276.199,233.989 276.093,233.989 275.880 C 233.989 275.666,234.231 275.492,234.526 275.492 C 234.821 275.492,235.063 275.331,235.063 275.134 C 235.063 274.937,235.304 274.776,235.599 274.776 C 235.894 274.776,236.136 274.627,236.136 274.444 C 236.136 274.261,236.860 273.749,237.746 273.307 C 238.631 272.865,239.356 272.280,239.356 272.008 C 239.356 271.737,239.513 271.611,239.704 271.729 C 240.056 271.947,241.286 270.753,241.369 270.114 C 241.393 269.923,241.433 269.615,241.458 269.429 C 241.483 269.243,241.945 268.879,242.487 268.620 C 243.183 268.287,243.523 267.807,243.649 266.977 C 243.748 266.332,243.989 265.815,244.186 265.829 C 244.383 265.843,244.597 265.419,244.663 264.886 C 244.753 264.153,244.860 264.042,245.105 264.428 C 245.368 264.843,245.428 264.822,245.433 264.311 C 245.436 263.967,245.599 263.685,245.796 263.685 C 246.322 263.685,246.233 262.614,245.707 262.599 C 245.461 262.592,245.598 262.391,246.013 262.152 C 246.528 261.855,246.750 261.394,246.715 260.693 C 246.686 260.130,246.863 259.592,247.107 259.499 C 247.370 259.398,247.510 258.825,247.452 258.090 C 247.399 257.408,247.476 256.776,247.625 256.684 C 248.057 256.416,248.008 216.175,247.574 215.363 C 247.310 214.871,247.317 214.669,247.596 214.669 C 248.056 214.669,247.672 213.128,247.165 212.935 C 246.983 212.865,247.008 212.607,247.221 212.350 C 247.503 212.012,247.450 211.831,247.020 211.667 C 246.685 211.538,246.525 211.216,246.642 210.909 C 246.903 210.230,246.537 209.244,246.120 209.502 C 245.947 209.609,245.900 209.447,246.017 209.142 C 246.139 208.826,246.041 208.587,245.791 208.587 C 245.457 208.587,245.450 208.468,245.761 208.092 C 246.078 207.711,246.048 207.549,245.632 207.390 C 245.294 207.260,245.180 206.954,245.328 206.570 C 245.502 206.115,245.419 206.013,245.004 206.172 C 244.585 206.333,244.492 206.211,244.630 205.683 C 244.731 205.295,244.673 205.004,244.500 205.036 C 243.811 205.162,243.496 204.982,243.927 204.708 C 244.274 204.488,244.175 204.192,243.518 203.483 C 243.041 202.969,242.727 202.473,242.819 202.380 C 242.912 202.288,242.671 202.111,242.284 201.989 C 241.897 201.866,241.493 201.432,241.387 201.025 C 241.277 200.608,241.023 200.391,240.802 200.527 C 240.587 200.660,240.435 200.636,240.463 200.474 C 240.570 199.858,240.419 199.286,240.161 199.327 C 239.528 199.427,238.498 199.213,238.873 199.060 C 239.272 198.896,237.072 196.471,236.439 196.377 C 236.272 196.353,235.988 196.313,235.808 196.288 C 235.628 196.263,235.346 196.097,235.182 195.918 C 235.005 195.725,235.089 195.711,235.386 195.883 C 235.735 196.086,235.806 196.041,235.618 195.738 C 235.470 195.497,235.140 195.380,234.887 195.477 C 234.633 195.574,234.086 195.338,233.671 194.951 C 233.240 194.549,232.916 194.431,232.916 194.675 C 232.916 194.931,232.628 194.842,232.196 194.450 C 231.800 194.092,231.063 193.755,230.559 193.701 C 230.055 193.647,229.409 193.410,229.124 193.173 C 228.702 192.822,228.648 192.851,228.832 193.330 C 228.955 193.653,228.896 193.918,228.699 193.918 C 228.502 193.918,228.252 193.686,228.143 193.402 C 227.973 192.957,221.984 192.882,184.450 192.855 L 140.955 192.824 141.050 203.478 M248.068 193.740 C 248.294 194.228,248.610 194.629,248.769 194.630 C 248.928 194.632,248.959 194.794,248.837 194.991 C 248.716 195.188,248.866 195.349,249.172 195.349 C 249.477 195.349,250.211 196.017,250.803 196.834 C 251.394 197.650,251.882 198.174,251.886 197.996 C 251.891 197.819,252.227 198.077,252.633 198.569 C 253.039 199.061,253.265 199.222,253.135 198.927 C 253.005 198.631,253.152 198.703,253.462 199.084 C 253.772 199.466,254.025 200.001,254.025 200.271 C 254.025 200.601,254.262 200.689,254.741 200.537 C 255.299 200.360,255.456 200.472,255.456 201.049 C 255.456 201.565,255.699 201.801,256.261 201.830 C 256.932 201.865,256.954 201.901,256.396 202.044 C 255.789 202.200,255.804 202.255,256.564 202.634 C 257.025 202.864,257.736 203.547,258.144 204.152 C 258.559 204.767,259.149 205.213,259.485 205.164 C 259.815 205.115,260.071 205.181,260.054 205.311 C 259.955 206.056,260.159 206.451,260.526 206.224 C 260.810 206.048,260.869 206.162,260.709 206.579 C 260.569 206.944,260.617 207.104,260.827 206.974 C 261.022 206.854,261.181 207.016,261.181 207.335 C 261.181 207.653,261.342 207.814,261.538 207.692 C 261.735 207.571,261.896 207.651,261.896 207.871 C 261.896 208.091,262.057 208.172,262.254 208.050 C 262.451 207.928,262.612 208.080,262.612 208.387 C 262.612 208.694,262.894 208.947,263.238 208.950 C 263.721 208.954,263.754 209.025,263.383 209.260 C 263.023 209.489,263.118 209.620,263.758 209.780 C 264.262 209.907,264.951 210.596,265.434 211.455 C 266.145 212.719,266.334 212.854,266.848 212.462 C 267.175 212.213,267.327 212.146,267.186 212.313 C 266.825 212.742,267.543 213.953,268.159 213.953 C 268.490 213.953,268.591 214.164,268.443 214.549 C 268.290 214.949,268.352 215.059,268.633 214.886 C 268.864 214.743,269.052 214.807,269.052 215.027 C 269.052 215.247,269.213 215.327,269.410 215.206 C 269.606 215.084,269.767 215.236,269.767 215.542 C 269.767 215.849,270.018 216.100,270.325 216.100 C 270.632 216.100,270.784 216.261,270.662 216.458 C 270.540 216.655,270.587 216.816,270.765 216.816 C 270.943 216.816,271.460 217.138,271.914 217.531 C 272.368 217.925,272.630 218.247,272.497 218.247 C 272.364 218.247,272.527 218.661,272.859 219.168 C 273.255 219.773,273.688 220.030,274.119 219.917 C 274.709 219.763,274.941 220.068,274.819 220.841 C 274.795 220.988,275.013 221.109,275.302 221.109 C 275.645 221.109,275.748 221.316,275.599 221.704 C 275.445 222.105,275.507 222.215,275.789 222.041 C 276.027 221.894,276.210 221.985,276.213 222.251 C 276.217 222.591,276.313 222.572,276.565 222.182 C 276.846 221.748,276.913 221.800,276.918 222.451 C 276.921 222.939,277.143 223.256,277.481 223.256 C 277.788 223.256,277.966 223.377,277.876 223.524 C 277.664 223.874,278.569 224.710,278.853 224.427 C 278.972 224.308,279.070 224.398,279.070 224.627 C 279.070 224.857,279.070 225.125,279.070 225.224 C 279.070 225.591,280.332 226.715,280.590 226.577 C 280.738 226.498,280.859 226.611,280.859 226.828 C 280.859 227.045,281.137 227.175,281.477 227.118 C 281.817 227.060,282.098 227.185,282.103 227.396 C 282.107 227.607,282.393 228.061,282.737 228.405 C 283.081 228.750,283.366 229.221,283.369 229.453 C 283.372 229.700,283.518 229.653,283.721 229.338 C 284.001 228.904,284.069 228.955,284.073 229.606 C 284.077 230.130,284.297 230.413,284.705 230.417 C 285.240 230.422,285.253 230.473,284.794 230.769 C 284.328 231.070,284.335 231.117,284.845 231.122 C 285.169 231.125,285.526 231.369,285.639 231.664 C 285.752 231.959,286.074 232.200,286.354 232.200 C 286.634 232.200,286.968 232.617,287.096 233.126 C 287.299 233.934,287.403 233.991,287.917 233.574 C 288.426 233.160,288.475 233.178,288.276 233.709 C 288.149 234.048,288.200 234.419,288.388 234.536 C 288.576 234.652,288.730 234.567,288.730 234.347 C 288.730 234.127,288.894 234.048,289.093 234.172 C 289.293 234.295,289.373 234.533,289.270 234.699 C 289.167 234.865,289.285 235.086,289.533 235.190 C 289.856 235.326,289.804 235.491,289.351 235.778 C 289.004 235.998,288.520 236.420,288.277 236.716 C 288.034 237.012,287.397 237.669,286.861 238.176 C 286.326 238.684,285.994 239.277,286.125 239.496 C 286.256 239.714,286.081 239.664,285.737 239.385 C 285.393 239.106,285.155 239.025,285.208 239.206 C 285.373 239.771,284.437 241.145,283.887 241.145 C 283.599 241.145,283.363 241.386,283.363 241.682 C 283.363 241.977,283.242 242.199,283.095 242.176 C 282.371 242.062,281.932 242.266,281.932 242.717 C 281.932 242.991,281.667 243.317,281.344 243.441 C 281.021 243.565,280.852 243.762,280.969 243.879 C 281.274 244.184,280.396 244.979,279.581 245.136 C 279.201 245.209,278.884 245.508,278.875 245.801 C 278.866 246.093,278.652 246.288,278.401 246.234 C 278.149 246.180,278.034 246.283,278.145 246.462 C 278.256 246.642,278.108 246.986,277.818 247.227 C 277.527 247.469,277.377 247.809,277.485 247.983 C 277.663 248.271,277.159 248.451,276.476 248.343 C 276.328 248.320,276.208 248.542,276.208 248.837 C 276.208 249.135,275.889 249.374,275.492 249.374 C 275.098 249.374,274.776 249.549,274.776 249.764 C 274.776 249.978,274.414 250.473,273.971 250.864 C 273.529 251.255,273.366 251.474,273.609 251.350 C 273.899 251.204,273.980 251.314,273.844 251.670 C 273.729 251.969,273.530 252.200,273.401 252.182 C 272.531 252.067,272.114 252.261,272.588 252.560 C 272.976 252.806,272.918 252.925,272.319 253.116 C 271.900 253.249,271.556 253.570,271.556 253.829 C 271.556 254.087,271.218 254.388,270.805 254.496 C 270.391 254.604,270.149 254.848,270.267 255.038 C 270.384 255.228,269.796 255.721,268.961 256.135 C 268.125 256.548,267.643 256.887,267.889 256.887 C 268.135 256.887,268.336 257.048,268.336 257.245 C 268.336 257.442,268.087 257.603,267.783 257.603 C 267.037 257.603,265.429 259.379,265.717 259.884 C 265.843 260.105,265.816 260.168,265.657 260.024 C 265.497 259.879,265.023 260.132,264.602 260.586 C 264.182 261.039,263.620 261.338,263.354 261.249 C 263.063 261.152,262.970 261.249,263.120 261.492 C 263.257 261.714,263.226 261.896,263.051 261.896 C 262.876 261.896,262.521 262.291,262.263 262.774 C 262.005 263.256,261.696 263.640,261.577 263.626 C 260.845 263.541,260.512 263.750,260.681 264.190 C 260.798 264.493,260.578 264.788,260.128 264.931 C 259.717 265.061,259.469 265.310,259.577 265.484 C 259.684 265.658,259.390 266.051,258.922 266.358 C 258.454 266.664,257.894 267.303,257.678 267.777 C 257.377 268.438,257.094 268.591,256.461 268.434 C 256.007 268.322,255.753 268.359,255.897 268.516 C 256.041 268.672,255.829 269.086,255.426 269.436 C 255.023 269.785,254.704 270.204,254.717 270.366 C 254.730 270.529,254.580 270.682,254.383 270.707 C 254.186 270.731,253.869 270.771,253.678 270.796 C 253.488 270.821,253.435 271.110,253.562 271.440 C 253.732 271.884,253.645 271.982,253.222 271.820 C 252.888 271.692,252.569 271.821,252.449 272.134 C 252.313 272.489,252.392 272.580,252.687 272.408 C 252.931 272.265,252.824 272.499,252.449 272.926 C 252.074 273.353,251.586 273.703,251.365 273.703 C 251.143 273.703,250.779 274.186,250.557 274.777 C 250.250 275.588,249.998 275.792,249.525 275.611 C 249.140 275.463,248.986 275.511,249.124 275.735 C 249.248 275.936,248.949 276.314,248.459 276.576 C 246.347 277.706,247.681 277.817,264.588 277.911 L 281.352 278.004 284.504 274.869 C 286.237 273.146,287.656 271.463,287.656 271.130 C 287.656 270.797,287.816 270.427,288.010 270.307 C 288.219 270.178,288.275 270.353,288.148 270.733 C 288.029 271.087,289.057 270.250,290.432 268.873 C 291.807 267.496,292.846 266.208,292.741 266.011 C 292.637 265.814,292.685 265.775,292.850 265.925 C 293.262 266.299,294.812 264.779,294.812 264.002 C 294.812 263.654,294.971 263.271,295.166 263.151 C 295.377 263.021,295.426 263.193,295.287 263.577 C 295.103 264.089,295.249 264.046,295.996 263.365 C 296.513 262.893,296.849 262.366,296.742 262.193 C 296.635 262.020,296.696 261.923,296.877 261.977 C 297.331 262.112,304.109 255.379,303.885 255.016 C 303.785 254.855,303.848 254.767,304.024 254.821 C 304.464 254.956,308.408 251.010,308.408 250.434 C 308.408 250.179,308.508 250.070,308.629 250.192 C 308.751 250.313,309.051 250.220,309.297 249.983 C 312.853 246.550,313.481 246.076,313.888 246.517 C 314.216 246.871,314.210 246.917,313.864 246.722 C 313.618 246.583,313.417 246.640,313.417 246.848 C 313.417 247.057,313.587 247.227,313.796 247.227 C 314.004 247.227,314.080 247.380,313.965 247.566 C 313.850 247.753,314.082 247.843,314.481 247.766 C 315.251 247.617,315.502 248.142,314.777 248.384 C 314.513 248.472,314.589 248.620,314.974 248.767 C 315.388 248.926,315.517 248.872,315.353 248.608 C 315.205 248.367,315.304 248.273,315.603 248.372 C 315.877 248.462,316.150 248.872,316.211 249.282 C 316.271 249.693,316.576 250.127,316.887 250.246 C 317.381 250.436,317.390 250.383,316.956 249.836 C 316.682 249.491,316.957 249.608,317.568 250.096 C 318.178 250.585,318.604 251.185,318.514 251.431 C 318.423 251.677,318.527 251.878,318.745 251.878 C 318.963 251.878,319.141 252.129,319.141 252.436 C 319.141 252.743,319.291 252.901,319.474 252.788 C 319.658 252.675,319.910 252.748,320.036 252.952 C 320.161 253.155,320.402 253.236,320.571 253.131 C 320.947 252.899,321.417 254.243,321.125 254.715 C 321.005 254.910,321.337 254.986,321.907 254.895 C 322.851 254.744,322.865 254.762,322.204 255.275 C 321.515 255.809,321.777 255.998,322.987 255.841 C 323.233 255.809,323.435 256.101,323.435 256.490 C 323.435 256.884,323.753 257.298,324.155 257.426 C 324.552 257.551,324.791 257.793,324.686 257.962 C 324.582 258.131,324.685 258.385,324.915 258.528 C 325.177 258.690,325.238 258.632,325.079 258.374 C 324.928 258.130,325.048 257.961,325.370 257.961 C 325.709 257.961,325.838 258.165,325.711 258.497 C 325.598 258.792,325.664 259.034,325.859 259.034 C 326.054 259.034,326.296 259.350,326.397 259.736 C 326.523 260.216,326.814 260.393,327.317 260.297 C 328.032 260.159,328.790 261.311,328.304 261.797 C 327.850 262.251,329.609 263.339,330.116 262.918 C 330.505 262.595,330.560 262.632,330.381 263.098 C 330.232 263.487,330.343 263.685,330.710 263.685 C 331.014 263.685,331.379 263.871,331.519 264.098 C 331.691 264.377,331.611 264.415,331.272 264.216 C 330.995 264.054,331.347 264.471,332.054 265.145 C 332.760 265.818,333.443 266.660,333.572 267.017 C 333.700 267.374,333.929 267.590,334.080 267.496 C 334.602 267.174,335.696 268.283,335.461 268.896 C 335.298 269.321,335.383 269.432,335.763 269.286 C 336.054 269.175,336.402 269.262,336.538 269.481 C 336.686 269.721,336.620 269.777,336.370 269.623 C 336.143 269.482,335.957 269.557,335.957 269.788 C 335.957 270.040,336.304 270.142,336.819 270.044 C 337.436 269.926,337.628 270.016,337.496 270.360 C 337.387 270.644,337.556 270.841,337.908 270.841 C 338.236 270.841,338.404 271.003,338.281 271.201 C 338.159 271.399,338.309 271.658,338.616 271.775 C 338.922 271.893,339.084 272.133,338.975 272.309 C 338.866 272.486,339.028 272.630,339.335 272.630 C 339.642 272.630,339.893 272.808,339.893 273.026 C 339.893 273.244,340.126 273.332,340.411 273.223 C 340.732 273.100,340.864 273.196,340.756 273.476 C 340.661 273.725,341.165 274.343,341.877 274.850 C 342.700 275.435,343.023 275.863,342.763 276.023 C 342.181 276.384,343.419 277.254,344.544 277.275 C 345.254 277.288,345.328 277.363,344.902 277.639 C 344.551 277.865,350.223 277.987,361.270 277.991 C 374.407 277.995,378.155 277.899,378.086 277.559 C 377.984 277.059,374.917 274.061,374.509 274.061 C 374.361 274.061,374.240 273.888,374.240 273.677 C 374.240 273.148,373.302 272.256,373.030 272.527 C 372.908 272.649,372.809 272.471,372.809 272.132 C 372.809 271.792,372.659 271.606,372.477 271.719 C 372.294 271.832,372.042 271.600,371.916 271.204 C 371.790 270.807,371.430 270.483,371.115 270.483 C 370.800 270.483,370.639 270.386,370.757 270.269 C 371.017 270.009,368.999 267.979,368.482 267.979 C 368.280 267.979,368.208 267.829,368.320 267.647 C 368.433 267.464,368.201 267.212,367.805 267.086 C 367.408 266.960,367.084 266.700,367.084 266.508 C 367.084 266.316,366.682 265.724,366.190 265.194 C 365.698 264.663,365.295 264.360,365.295 264.519 C 365.295 264.679,365.054 264.568,364.758 264.273 C 364.463 263.978,364.222 263.586,364.222 263.403 C 364.222 263.220,363.806 262.766,363.298 262.394 C 361.570 261.128,361.014 260.572,361.247 260.339 C 361.374 260.212,361.205 260.107,360.871 260.107 C 360.537 260.107,360.157 259.829,360.027 259.490 C 359.665 258.547,358.081 256.887,357.544 256.887 C 357.281 256.887,357.066 256.691,357.066 256.451 C 357.066 255.995,355.369 254.383,354.888 254.383 C 354.735 254.383,354.513 254.078,354.395 253.706 C 354.277 253.334,353.864 252.946,353.477 252.845 C 353.089 252.744,352.773 252.404,352.773 252.091 C 352.773 251.777,352.522 251.521,352.215 251.521 C 351.908 251.521,351.738 251.389,351.838 251.229 C 352.059 250.870,348.638 247.546,348.347 247.837 C 348.232 247.951,348.025 247.749,347.886 247.388 C 347.571 246.566,345.332 244.365,344.811 244.365 C 344.599 244.365,344.517 244.272,344.631 244.159 C 344.908 243.882,341.577 240.464,341.232 240.670 C 341.083 240.760,340.862 240.575,340.742 240.261 C 340.621 239.946,339.656 238.802,338.597 237.718 C 336.632 235.705,336.396 235.276,337.036 234.880 C 337.236 234.757,337.305 234.502,337.189 234.313 C 337.072 234.125,337.110 233.995,337.272 234.023 C 337.968 234.144,338.489 233.965,338.306 233.669 C 338.197 233.493,338.359 233.252,338.665 233.135 C 338.972 233.017,339.123 232.761,339.002 232.565 C 338.871 232.352,339.029 232.303,339.396 232.444 C 339.800 232.599,339.925 232.543,339.762 232.279 C 339.625 232.057,339.843 231.703,340.250 231.485 C 340.655 231.268,340.892 230.938,340.776 230.751 C 340.661 230.564,340.817 230.411,341.124 230.411 C 341.431 230.411,341.682 230.261,341.682 230.078 C 341.682 229.894,342.015 229.638,342.423 229.509 C 342.899 229.358,343.090 229.079,342.956 228.729 C 342.814 228.360,342.911 228.248,343.258 228.381 C 343.682 228.544,344.175 228.002,344.340 227.191 C 344.451 226.645,345.013 226.118,345.485 226.118 C 346.247 226.118,346.958 225.317,346.760 224.684 C 346.668 224.390,346.721 224.270,346.877 224.416 C 347.241 224.755,348.179 223.995,347.918 223.573 C 347.810 223.399,347.982 223.256,348.301 223.256 C 348.619 223.256,348.780 223.095,348.658 222.898 C 348.537 222.701,348.698 222.540,349.016 222.540 C 349.334 222.540,349.497 222.381,349.376 222.187 C 349.246 221.976,349.408 221.929,349.775 222.070 C 350.259 222.256,350.340 222.169,350.148 221.668 C 349.968 221.200,350.042 221.083,350.425 221.230 C 350.793 221.371,350.882 221.260,350.726 220.853 C 350.578 220.469,350.644 220.363,350.923 220.535 C 351.153 220.677,351.342 220.648,351.342 220.469 C 351.342 220.291,351.704 219.955,352.147 219.722 C 352.686 219.438,352.728 219.364,352.275 219.496 C 351.705 219.663,351.669 219.609,352.047 219.153 C 352.294 218.856,352.639 218.701,352.813 218.809 C 352.988 218.916,353.131 218.834,353.131 218.626 C 353.131 218.417,353.367 218.247,353.656 218.247 C 353.999 218.247,354.102 218.040,353.953 217.652 C 353.815 217.292,353.869 217.145,354.089 217.282 C 354.496 217.533,356.056 215.924,355.725 215.594 C 355.610 215.479,355.794 215.385,356.133 215.385 C 356.473 215.385,356.652 215.225,356.532 215.031 C 356.411 214.835,356.541 214.765,356.825 214.873 C 357.160 215.002,357.416 214.750,357.569 214.139 C 357.698 213.627,357.959 213.305,358.150 213.423 C 358.341 213.541,358.497 213.478,358.497 213.283 C 358.497 213.088,358.841 212.819,359.260 212.686 C 359.797 212.516,359.891 212.363,359.580 212.170 C 359.265 211.975,359.251 211.826,359.532 211.652 C 359.750 211.517,359.928 211.502,359.928 211.619 C 359.928 211.736,360.795 210.981,361.854 209.941 C 362.914 208.901,363.710 207.931,363.625 207.786 C 363.539 207.641,363.682 207.603,363.943 207.703 C 364.212 207.807,364.687 207.427,365.042 206.827 C 365.386 206.244,366.008 205.660,366.423 205.528 C 367.018 205.340,367.073 205.222,366.684 204.975 C 366.276 204.717,366.285 204.661,366.736 204.657 C 367.340 204.651,368.735 203.213,368.589 202.746 C 368.539 202.584,368.641 202.540,368.817 202.649 C 368.992 202.757,369.504 202.367,369.953 201.781 C 370.402 201.195,370.952 200.716,371.175 200.716 C 371.398 200.716,371.860 200.242,372.202 199.664 C 372.544 199.086,373.163 198.505,373.579 198.373 C 374.173 198.184,374.229 198.066,373.840 197.820 C 373.432 197.561,373.441 197.506,373.892 197.501 C 374.496 197.495,375.890 196.057,375.745 195.591 C 375.694 195.428,375.819 195.398,376.022 195.524 C 376.225 195.649,376.500 195.460,376.634 195.103 C 376.767 194.746,377.168 194.244,377.526 193.987 C 378.985 192.937,377.852 192.859,361.164 192.859 C 350.146 192.859,344.229 192.982,344.369 193.209 C 344.489 193.402,344.255 193.560,343.849 193.560 C 343.444 193.560,343.113 193.716,343.113 193.906 C 343.113 194.097,343.394 194.175,343.739 194.080 C 344.083 193.985,343.882 194.144,343.292 194.433 C 342.701 194.722,342.460 194.969,342.755 194.980 C 343.220 194.999,343.222 195.046,342.772 195.331 C 342.486 195.511,342.124 195.580,341.967 195.483 C 341.810 195.386,341.682 195.558,341.682 195.864 C 341.682 196.171,341.501 196.422,341.280 196.422 C 341.011 196.422,341.034 196.628,341.352 197.048 C 341.755 197.581,341.751 197.608,341.324 197.227 C 340.633 196.610,339.769 196.657,340.015 197.298 C 340.155 197.662,340.042 197.751,339.638 197.596 C 339.187 197.423,339.106 197.543,339.265 198.151 C 339.377 198.578,339.339 198.848,339.181 198.750 C 339.023 198.653,338.798 198.824,338.680 199.130 C 338.563 199.437,338.323 199.599,338.147 199.490 C 337.971 199.381,337.744 199.613,337.641 200.004 C 337.528 200.437,337.153 200.716,336.682 200.716 C 336.080 200.716,335.958 200.869,336.129 201.409 C 336.352 202.112,335.231 203.090,334.752 202.611 C 334.538 202.397,334.386 203.181,334.436 204.242 C 334.453 204.597,334.353 204.621,334.063 204.332 C 333.484 203.752,332.624 203.840,332.859 204.454 C 332.999 204.818,332.886 204.907,332.482 204.751 C 332.033 204.579,331.950 204.699,332.106 205.294 C 332.216 205.714,332.202 206.044,332.074 206.028 C 331.377 205.937,331.192 206.140,331.664 206.477 C 332.095 206.785,332.042 206.825,331.395 206.683 C 330.846 206.563,330.590 206.674,330.590 207.031 C 330.590 207.320,330.431 207.457,330.237 207.337 C 330.041 207.216,329.970 207.345,330.077 207.625 C 330.302 208.210,328.204 210.133,327.689 209.815 C 327.504 209.700,327.397 209.820,327.451 210.081 C 327.505 210.341,327.341 210.512,327.087 210.460 C 326.728 210.387,326.713 210.531,327.019 211.102 C 327.379 211.775,327.352 211.801,326.713 211.403 C 326.141 211.045,325.909 211.070,325.440 211.540 C 324.848 212.131,324.633 213.066,325.164 212.738 C 325.328 212.637,325.462 212.786,325.462 213.069 C 325.462 213.439,325.337 213.480,325.017 213.215 C 324.736 212.982,324.493 212.972,324.359 213.190 C 324.242 213.380,324.348 213.627,324.595 213.741 C 324.842 213.854,324.682 213.857,324.240 213.747 C 323.607 213.590,323.435 213.700,323.435 214.261 C 323.435 215.072,320.992 217.254,320.456 216.923 C 320.260 216.801,320.217 216.888,320.359 217.118 C 320.515 217.370,320.362 217.542,319.967 217.560 C 319.592 217.576,319.508 217.664,319.767 217.768 C 320.513 218.069,320.267 218.670,319.498 218.425 C 319.070 218.290,318.566 218.414,318.246 218.734 C 317.598 219.381,317.548 220.280,318.148 220.480 C 318.389 220.560,318.228 220.720,317.790 220.834 C 317.352 220.949,317.083 220.898,317.192 220.722 C 317.300 220.546,317.140 220.498,316.834 220.615 C 316.529 220.732,316.279 221.051,316.279 221.324 C 316.279 222.001,314.833 223.614,314.226 223.614 C 313.954 223.614,313.812 223.742,313.909 223.900 C 314.007 224.057,313.734 224.405,313.304 224.673 C 312.603 225.109,312.571 225.101,312.990 224.594 C 313.398 224.100,313.352 224.054,312.632 224.231 C 312.178 224.343,311.920 224.311,312.058 224.161 C 312.428 223.757,311.347 222.808,310.860 223.109 C 310.608 223.265,310.540 223.211,310.688 222.972 C 311.006 222.457,307.775 219.227,307.260 219.545 C 307.019 219.694,306.968 219.624,307.128 219.365 C 307.434 218.869,305.966 217.189,305.218 217.180 C 304.939 217.176,304.808 217.076,304.928 216.957 C 305.288 216.596,304.335 215.818,303.789 216.027 C 303.488 216.143,303.377 216.067,303.518 215.840 C 303.784 215.409,301.906 213.238,301.266 213.238 C 301.039 213.238,300.952 213.077,301.073 212.880 C 301.276 212.552,300.787 212.363,300.063 212.489 C 299.901 212.517,299.876 212.366,300.007 212.153 C 300.273 211.723,297.880 209.216,297.535 209.561 C 297.415 209.681,297.317 209.516,297.317 209.194 C 297.317 208.814,297.123 208.683,296.765 208.821 C 296.462 208.937,296.240 208.892,296.271 208.720 C 296.414 207.936,296.196 207.513,295.647 207.513 C 295.319 207.513,295.150 207.414,295.272 207.292 C 295.549 207.015,294.647 206.082,294.101 206.082 C 293.879 206.082,293.796 205.921,293.918 205.725 C 294.120 205.397,293.632 205.207,292.907 205.333 C 292.745 205.361,292.720 205.210,292.852 204.997 C 293.117 204.567,290.725 202.060,290.379 202.406 C 290.259 202.526,290.161 202.346,290.161 202.006 C 290.161 201.667,290.040 201.458,289.893 201.542 C 289.745 201.626,289.256 201.313,288.807 200.847 C 288.357 200.381,288.087 200.000,288.206 200.000 C 288.326 200.000,288.182 199.758,287.887 199.463 C 287.591 199.168,287.151 198.927,286.907 198.927 C 286.663 198.927,286.557 198.834,286.670 198.720 C 286.946 198.445,283.617 195.025,283.274 195.231 C 283.126 195.319,283.005 195.131,283.005 194.812 C 283.005 194.494,282.844 194.333,282.648 194.454 C 282.451 194.576,282.290 194.505,282.290 194.297 C 282.290 194.088,282.048 193.918,281.753 193.918 C 281.458 193.918,281.257 193.716,281.306 193.470 C 281.376 193.119,277.795 193.005,264.526 192.938 L 247.656 192.853 248.068 193.740 M125.224 213.596 C 125.224 213.831,116.398 213.953,99.463 213.953 C 82.528 213.953,73.703 213.831,73.703 213.596 C 73.703 213.360,82.528 213.238,99.463 213.238 C 116.398 213.238,125.224 213.360,125.224 213.596 M216.816 213.596 C 216.816 213.832,203.995 213.953,179.070 213.953 C 154.144 213.953,141.324 213.832,141.324 213.596 C 141.324 213.359,154.144 213.238,179.070 213.238 C 203.995 213.238,216.816 213.359,216.816 213.596 M68.626 213.863 C 65.932 213.924,61.424 213.924,58.608 213.863 C 55.792 213.803,57.996 213.753,63.506 213.753 C 69.016 213.753,71.320 213.802,68.626 213.863 M164.848 248.902 C 164.791 253.196,164.744 249.785,164.744 241.324 C 164.744 232.862,164.790 229.350,164.847 233.518 C 164.905 237.686,164.905 244.609,164.848 248.902 " stroke="none" fill="#e44c44" fill-rule="evenodd"></path><path id="path1" d="M125.939 130.233 L 125.939 172.809 138.283 172.809 L 150.626 172.809 150.626 130.233 L 150.626 87.657 138.283 87.657 L 125.939 87.657 125.939 130.233 M164.222 98.173 C 164.222 107.432,164.289 108.715,164.788 108.906 C 165.527 109.190,188.320 109.190,189.058 108.906 C 189.557 108.715,189.624 107.432,189.624 98.173 L 189.624 87.657 176.923 87.657 L 164.222 87.657 164.222 98.173 M203.220 130.233 L 203.220 172.809 226.655 172.809 C 242.039 172.809,250.089 172.686,250.089 172.451 C 250.089 172.254,250.482 172.093,250.963 172.093 C 251.443 172.093,251.936 171.932,252.057 171.735 C 252.179 171.538,252.671 171.377,253.152 171.377 C 253.632 171.377,254.025 171.216,254.025 171.020 C 254.025 170.823,254.267 170.662,254.562 170.662 C 254.857 170.662,255.098 170.501,255.098 170.304 C 255.098 170.107,255.409 169.946,255.788 169.946 C 256.168 169.946,256.720 169.705,257.015 169.410 C 257.310 169.114,257.685 168.873,257.848 168.873 C 258.011 168.873,258.659 168.350,259.288 167.710 C 259.916 167.071,260.801 166.188,261.253 165.748 C 262.563 164.474,263.685 163.192,263.685 162.967 C 263.685 162.854,264.007 162.415,264.401 161.993 C 264.794 161.570,265.116 161.013,265.116 160.755 C 265.116 160.497,265.259 160.286,265.434 160.286 C 265.609 160.286,265.858 159.723,265.987 159.034 C 266.116 158.345,266.376 157.782,266.564 157.782 C 266.751 157.782,266.905 157.299,266.905 156.708 C 266.905 156.118,267.066 155.635,267.263 155.635 C 267.460 155.635,267.621 155.233,267.621 154.741 C 267.621 154.249,267.782 153.846,267.979 153.846 C 268.175 153.846,268.336 153.051,268.336 152.078 C 268.336 151.106,268.497 150.211,268.694 150.089 C 268.895 149.965,269.052 148.244,269.052 146.154 C 269.052 144.063,268.895 142.343,268.694 142.218 C 268.497 142.097,268.336 141.282,268.336 140.408 C 268.336 139.534,268.175 138.819,267.979 138.819 C 267.782 138.819,267.621 138.256,267.621 137.567 C 267.621 136.878,267.460 136.315,267.263 136.315 C 267.066 136.315,266.905 136.071,266.905 135.773 C 266.905 135.475,266.761 134.952,266.584 134.611 C 266.408 134.269,265.981 133.305,265.635 132.469 C 265.290 131.632,264.871 130.948,264.704 130.948 C 264.537 130.948,264.401 130.742,264.401 130.490 C 264.401 130.239,264.079 129.801,263.685 129.517 C 263.292 129.233,262.970 128.814,262.970 128.586 C 262.970 127.995,258.846 123.895,257.973 123.618 C 257.573 123.490,257.245 123.236,257.245 123.053 C 257.245 122.869,256.923 122.719,256.530 122.719 C 256.136 122.719,255.814 122.558,255.814 122.361 C 255.814 122.165,255.572 122.004,255.277 122.004 C 254.982 122.004,254.741 121.843,254.741 121.646 C 254.741 121.449,254.419 121.288,254.025 121.288 C 253.631 121.288,253.309 121.145,253.309 120.971 C 253.309 120.796,252.867 120.565,252.326 120.456 C 251.784 120.348,250.617 120.095,249.732 119.894 C 248.846 119.694,243.734 119.523,238.372 119.515 L 228.623 119.499 228.623 103.578 L 228.623 87.657 215.921 87.657 L 203.220 87.657 203.220 130.233 M164.222 146.154 L 164.222 172.809 176.923 172.809 L 189.624 172.809 189.624 146.154 L 189.624 119.499 176.923 119.499 L 164.222 119.499 164.222 146.154 M237.388 139.177 C 237.510 139.374,238.137 139.535,238.781 139.535 C 239.999 139.535,242.244 141.304,243.202 143.018 C 243.734 143.970,243.804 147.406,243.292 147.406 C 243.095 147.406,242.929 147.607,242.923 147.853 C 242.908 148.519,240.880 150.626,240.255 150.626 C 239.958 150.626,239.714 150.787,239.714 150.984 C 239.714 151.207,237.627 151.342,234.168 151.342 L 228.623 151.342 228.623 145.081 L 228.623 138.819 232.895 138.819 C 235.357 138.819,237.261 138.971,237.388 139.177 " stroke="none" fill="#040404" fill-rule="evenodd"></path><path id="path2" d="M228.144 193.405 C 228.390 194.043,228.846 194.067,229.082 193.454 C 229.184 193.186,228.982 192.970,228.604 192.941 C 228.171 192.909,228.015 193.066,228.144 193.405 M247.585 193.195 C 247.116 193.491,247.127 193.613,247.677 194.163 C 248.277 194.763,248.302 194.747,248.225 193.818 C 248.181 193.283,248.139 192.847,248.133 192.850 C 248.127 192.853,247.880 193.008,247.585 193.195 M281.336 193.380 C 281.336 193.676,281.537 193.918,281.783 193.918 C 282.029 193.918,282.311 194.119,282.411 194.365 C 282.515 194.623,282.603 194.647,282.619 194.420 C 282.635 194.205,282.352 193.761,281.992 193.435 C 281.432 192.929,281.336 192.921,281.336 193.380 M377.306 194.122 C 376.928 194.399,376.687 194.695,376.771 194.779 C 376.855 194.864,377.234 194.706,377.613 194.429 C 377.992 194.152,378.233 193.856,378.149 193.772 C 378.064 193.687,377.685 193.845,377.306 194.122 M250.070 196.555 C 250.748 197.269,251.373 197.853,251.458 197.853 C 251.802 197.853,249.812 195.556,249.343 195.412 C 249.065 195.327,249.392 195.841,250.070 196.555 M340.956 196.071 C 340.507 196.348,340.532 196.490,341.125 197.035 C 341.665 197.531,341.722 197.542,341.379 197.083 C 341.025 196.611,341.029 196.459,341.398 196.327 C 341.652 196.236,341.775 196.069,341.671 195.954 C 341.567 195.839,341.245 195.892,340.956 196.071 M251.890 198.063 C 251.883 198.276,252.361 198.881,252.952 199.407 C 253.542 199.933,254.025 200.232,254.025 200.071 C 254.025 199.651,252.977 198.323,252.963 198.727 C 252.957 198.912,252.715 198.751,252.426 198.369 C 252.137 197.987,251.896 197.849,251.890 198.063 M238.998 198.569 C 239.475 198.877,239.475 198.919,238.998 198.946 C 238.644 198.967,238.704 199.075,239.177 199.265 C 239.571 199.423,239.956 199.496,240.033 199.427 C 240.268 199.218,239.296 198.211,238.865 198.217 C 238.643 198.220,238.703 198.378,238.998 198.569 M338.313 198.799 C 338.188 199.122,338.167 199.467,338.266 199.566 C 338.364 199.664,338.546 199.481,338.669 199.159 C 338.793 198.837,339.063 198.677,339.270 198.805 C 339.489 198.941,339.539 198.865,339.390 198.624 C 339.028 198.039,338.576 198.112,338.313 198.799 M337.388 199.783 C 337.388 200.122,337.227 200.301,337.030 200.179 C 336.834 200.057,336.673 200.128,336.673 200.337 C 336.673 200.545,336.839 200.716,337.042 200.716 C 337.488 200.716,337.924 199.701,337.611 199.388 C 337.489 199.266,337.388 199.443,337.388 199.783 M288.807 200.847 C 289.256 201.312,289.690 201.635,289.771 201.564 C 289.980 201.382,288.684 200.000,288.304 200.000 C 288.131 200.000,288.357 200.381,288.807 200.847 M254.587 200.675 C 254.479 200.850,254.630 201.191,254.923 201.434 C 255.367 201.802,255.456 201.749,255.456 201.117 C 255.456 200.350,254.948 200.091,254.587 200.675 M335.963 201.338 C 335.124 201.668,334.483 202.436,334.856 202.666 C 335.041 202.781,335.629 202.469,336.163 201.974 C 337.108 201.098,337.049 200.912,335.963 201.338 M257.245 203.757 C 258.514 205.066,258.892 205.315,258.465 204.562 C 257.992 203.726,256.764 202.504,256.397 202.504 C 256.196 202.504,256.578 203.068,257.245 203.757 M334.168 203.241 C 334.168 203.450,334.007 203.521,333.810 203.399 C 333.293 203.079,333.370 203.779,333.900 204.219 C 334.235 204.497,334.360 204.374,334.399 203.726 C 334.427 203.251,334.387 202.862,334.309 202.862 C 334.232 202.862,334.168 203.033,334.168 203.241 M259.034 205.367 C 259.034 205.499,259.544 206.061,260.167 206.616 C 260.931 207.296,261.222 207.423,261.062 207.004 C 260.930 206.661,260.823 206.305,260.823 206.211 C 260.823 206.117,260.662 206.140,260.465 206.261 C 260.156 206.452,259.969 206.040,260.045 205.337 C 260.057 205.222,259.835 205.128,259.551 205.128 C 259.267 205.128,259.034 205.236,259.034 205.367 M331.165 205.933 C 330.854 206.745,330.879 206.798,331.574 206.792 C 332.109 206.788,332.122 206.736,331.664 206.440 C 331.173 206.123,331.414 205.923,332.138 206.049 C 332.300 206.077,332.330 205.935,332.206 205.733 C 331.874 205.197,331.414 205.285,331.165 205.933 M330.233 206.938 C 330.233 207.278,330.072 207.456,329.875 207.335 C 329.678 207.213,329.517 207.445,329.517 207.850 C 329.517 208.281,329.284 208.587,328.955 208.587 C 328.646 208.587,328.151 208.828,327.856 209.123 C 327.561 209.419,327.418 209.660,327.538 209.660 C 327.658 209.660,327.549 209.885,327.295 210.159 C 327.041 210.434,326.713 210.585,326.565 210.496 C 326.062 210.191,326.295 211.002,326.842 211.456 C 327.292 211.829,327.351 211.815,327.183 211.377 C 327.052 211.037,327.555 210.375,328.584 209.532 C 330.107 208.284,330.907 206.995,330.444 206.532 C 330.328 206.416,330.233 206.599,330.233 206.938 M261.567 207.738 C 261.551 207.960,261.780 208.342,262.075 208.587 C 262.516 208.953,262.612 208.925,262.612 208.431 C 262.612 208.100,262.465 207.920,262.285 208.031 C 262.105 208.142,261.876 208.031,261.776 207.784 C 261.663 207.504,261.584 207.487,261.567 207.738 M24.059 208.824 C 23.811 208.924,23.700 209.153,23.811 209.333 C 23.923 209.513,23.888 209.861,23.734 210.107 C 23.304 210.796,23.279 211.449,23.684 211.449 C 23.884 211.449,23.959 211.218,23.851 210.935 C 23.742 210.653,23.807 210.371,23.995 210.308 C 24.183 210.246,24.406 209.833,24.491 209.391 C 24.576 208.948,24.615 208.599,24.577 208.615 C 24.539 208.631,24.306 208.725,24.059 208.824 M264.401 210.912 C 265.781 212.337,266.014 212.457,265.489 211.477 C 264.982 210.530,264.073 209.660,263.589 209.660 C 263.368 209.660,263.733 210.224,264.401 210.912 M266.218 212.069 C 266.171 212.799,268.184 214.846,268.479 214.370 C 268.634 214.119,268.506 213.953,268.157 213.953 C 267.811 213.953,267.681 213.788,267.834 213.540 C 267.992 213.285,267.932 213.224,267.676 213.383 C 267.301 213.614,267.097 213.169,267.229 212.406 C 267.258 212.244,267.129 212.205,266.945 212.319 C 266.760 212.433,266.527 212.325,266.427 212.077 C 266.287 211.729,266.240 211.728,266.218 212.069 M324.016 213.072 C 323.813 213.600,324.403 214.177,324.770 213.810 C 324.888 213.692,324.788 213.596,324.547 213.596 C 324.305 213.596,324.212 213.427,324.340 213.221 C 324.500 212.962,324.710 212.960,325.017 213.215 C 325.333 213.477,325.462 213.451,325.462 213.125 C 325.462 212.496,324.254 212.451,324.016 213.072 M23.004 213.165 C 22.767 213.316,22.599 213.785,22.631 214.208 C 22.663 214.631,22.827 214.892,22.997 214.787 C 23.166 214.682,23.226 214.391,23.129 214.140 C 23.033 213.889,23.135 213.502,23.355 213.282 C 23.815 212.822,23.637 212.763,23.004 213.165 M125.581 213.607 C 125.581 213.994,125.752 214.311,125.960 214.311 C 126.169 214.311,126.248 214.164,126.137 213.984 C 126.026 213.804,126.129 213.592,126.366 213.513 C 126.638 213.422,126.573 213.283,126.189 213.136 C 125.744 212.965,125.581 213.091,125.581 213.607 M73.703 213.506 C 73.703 213.654,69.155 213.768,63.596 213.760 L 53.488 213.746 63.506 213.939 C 79.697 214.251,125.224 213.994,125.224 213.591 C 125.224 213.362,116.173 213.238,99.463 213.238 C 85.295 213.238,73.703 213.359,73.703 213.506 M141.229 213.685 C 141.092 214.042,148.750 214.114,178.936 214.040 C 203.658 213.979,216.816 213.824,216.816 213.592 C 216.816 213.020,141.449 213.112,141.229 213.685 M323.118 214.064 C 323.096 214.420,322.916 214.612,322.719 214.490 C 322.522 214.369,322.361 214.601,322.361 215.006 C 322.361 215.437,322.128 215.742,321.799 215.742 C 321.235 215.742,319.906 216.811,320.457 216.821 C 320.619 216.824,320.510 216.983,320.215 217.174 C 319.919 217.364,319.839 217.522,320.036 217.525 C 320.886 217.536,323.517 214.828,323.339 214.126 C 323.183 213.509,323.155 213.501,323.118 214.064 M268.722 214.894 C 268.707 215.115,268.936 215.497,269.231 215.742 C 269.672 216.108,269.767 216.080,269.767 215.586 C 269.767 215.255,269.620 215.076,269.440 215.187 C 269.260 215.298,269.031 215.187,268.932 214.940 C 268.819 214.660,268.740 214.642,268.722 214.894 M48.323 216.209 L 47.452 217.352 48.592 216.302 C 49.778 215.208,49.913 215.013,49.463 215.047 C 49.316 215.058,48.803 215.581,48.323 216.209 M270.125 216.385 C 270.125 216.542,270.802 217.307,271.629 218.085 C 272.456 218.863,272.919 219.217,272.658 218.873 C 272.398 218.529,272.309 218.247,272.462 218.247 C 272.614 218.247,272.368 217.925,271.914 217.531 C 271.460 217.138,270.943 216.816,270.765 216.816 C 270.587 216.816,270.540 216.655,270.662 216.458 C 270.784 216.261,270.713 216.100,270.504 216.100 C 270.296 216.100,270.125 216.229,270.125 216.385 M247.941 217.442 C 247.891 240.428,247.951 254.153,248.105 254.306 C 248.212 254.414,248.301 246.023,248.301 235.659 C 248.301 225.295,248.220 216.816,248.122 216.816 C 248.023 216.816,247.942 217.097,247.941 217.442 M319.223 217.956 C 319.402 218.491,320.215 218.785,320.215 218.315 C 320.215 218.123,319.960 217.868,319.648 217.748 C 319.300 217.615,319.136 217.694,319.223 217.956 M223.277 235.022 C 223.268 244.096,223.380 251.521,223.526 251.521 C 223.815 251.520,223.760 218.989,223.470 218.700 C 223.373 218.603,223.286 225.948,223.277 235.022 M22.705 235.420 C 22.705 244.177,22.751 247.759,22.808 243.381 C 22.865 239.003,22.865 231.838,22.808 227.460 C 22.751 223.081,22.705 226.664,22.705 235.420 M46.691 235.420 C 46.691 244.041,46.811 251.020,46.959 250.929 C 47.106 250.837,47.227 243.859,47.227 235.420 C 47.227 226.982,47.106 220.003,46.959 219.912 C 46.811 219.821,46.691 226.800,46.691 235.420 M274.137 219.989 C 273.815 220.188,273.929 220.481,274.556 221.070 C 275.106 221.587,275.502 221.740,275.654 221.494 C 275.786 221.280,275.635 221.109,275.313 221.109 C 274.995 221.109,274.814 220.981,274.911 220.824 C 275.207 220.345,274.607 219.698,274.137 219.989 M316.879 220.180 C 316.621 220.851,316.893 221.069,317.718 220.853 C 318.301 220.701,318.328 220.602,317.902 220.176 C 317.277 219.552,317.119 219.552,316.879 220.180 M315.963 221.220 C 315.940 221.576,315.760 221.767,315.564 221.646 C 315.367 221.524,315.206 221.756,315.206 222.161 C 315.206 222.593,314.973 222.898,314.643 222.898 C 313.993 222.898,312.939 223.857,312.839 224.540 C 312.785 224.906,312.913 224.918,313.428 224.597 C 313.790 224.371,314.007 224.057,313.909 223.900 C 313.812 223.742,313.954 223.614,314.226 223.614 C 314.957 223.614,316.346 221.863,316.163 221.172 C 316.025 220.651,315.999 220.657,315.963 221.220 M275.878 222.049 C 275.862 222.271,276.091 222.653,276.386 222.898 C 276.838 223.273,276.922 223.209,276.918 222.495 C 276.914 221.879,276.827 221.780,276.603 222.134 C 276.342 222.545,276.264 222.545,276.100 222.134 C 275.994 221.865,275.894 221.827,275.878 222.049 M277.281 223.551 C 277.281 223.893,278.822 225.403,279.171 225.403 C 279.300 225.403,279.313 225.162,279.200 224.868 C 279.087 224.574,278.891 224.396,278.764 224.473 C 278.440 224.668,277.634 223.737,277.899 223.473 C 278.018 223.353,277.928 223.256,277.698 223.256 C 277.469 223.256,277.281 223.389,277.281 223.551 M73.077 224.924 C 72.732 225.063,72.649 227.284,72.713 234.645 L 72.796 244.186 72.898 234.777 C 72.954 229.602,73.131 225.449,73.292 225.548 C 73.452 225.648,73.584 225.494,73.584 225.208 C 73.584 224.921,73.570 224.700,73.554 224.715 C 73.538 224.731,73.323 224.825,73.077 224.924 M146.780 224.955 C 150.076 225.014,155.470 225.014,158.766 224.955 C 162.062 224.896,159.365 224.847,152.773 224.847 C 146.181 224.847,143.484 224.896,146.780 224.955 M164.744 241.324 C 164.744 249.785,164.791 253.196,164.848 248.902 C 164.905 244.609,164.905 237.686,164.847 233.518 C 164.790 229.350,164.744 232.862,164.744 241.324 M280.506 226.668 C 280.503 226.872,281.306 227.832,282.290 228.801 C 283.949 230.436,284.078 230.500,284.073 229.682 C 284.069 228.982,283.997 228.912,283.721 229.338 C 283.518 229.653,283.372 229.700,283.369 229.453 C 283.366 229.221,283.081 228.750,282.737 228.405 C 282.393 228.061,282.104 227.607,282.095 227.396 C 282.086 227.185,281.859 227.061,281.591 227.121 C 281.323 227.180,280.970 227.019,280.807 226.763 C 280.645 226.507,280.509 226.464,280.506 226.668 M115.778 227.334 C 115.884 227.610,116.282 227.918,116.662 228.017 C 117.580 228.257,117.532 228.107,116.469 227.410 C 115.777 226.957,115.627 226.940,115.778 227.334 M285.868 232.379 C 287.289 233.845,287.288 233.845,287.045 232.916 C 286.942 232.522,286.625 232.200,286.341 232.200 C 286.042 232.200,285.933 232.027,286.081 231.787 C 286.239 231.531,286.179 231.471,285.923 231.630 C 285.696 231.770,285.510 231.714,285.510 231.506 C 285.510 231.298,285.317 231.127,285.082 231.127 C 284.846 231.127,285.200 231.691,285.868 232.379 M121.871 232.119 C 122.290 232.459,122.720 232.979,122.827 233.274 C 122.985 233.711,123.026 233.699,123.049 233.210 C 123.081 232.524,122.159 231.481,121.531 231.493 C 121.299 231.497,121.452 231.779,121.871 232.119 M287.821 233.654 C 287.692 233.863,287.848 234.323,288.167 234.676 C 288.509 235.054,288.649 235.573,288.508 235.941 C 288.294 236.498,288.351 236.513,289.036 236.085 C 289.854 235.574,290.049 235.063,289.424 235.063 C 289.216 235.063,289.138 234.913,289.251 234.730 C 289.364 234.546,289.293 234.295,289.093 234.172 C 288.894 234.048,288.730 234.127,288.730 234.347 C 288.730 234.567,288.576 234.652,288.388 234.536 C 288.200 234.419,288.136 234.088,288.247 233.799 C 288.479 233.194,288.171 233.089,287.821 233.654 M125.631 236.852 C 125.612 237.147,125.909 237.791,126.291 238.283 C 126.960 239.146,126.977 239.149,126.778 238.372 C 126.664 237.929,126.441 237.567,126.281 237.567 C 126.122 237.567,125.918 237.285,125.828 236.941 C 125.713 236.500,125.655 236.473,125.631 236.852 M285.420 239.203 C 284.682 239.902,284.084 240.666,284.090 240.899 C 284.096 241.133,284.432 240.880,284.837 240.338 C 285.248 239.787,285.756 239.457,285.988 239.590 C 286.217 239.721,286.283 239.695,286.135 239.532 C 285.987 239.369,286.133 238.940,286.459 238.580 C 287.443 237.492,286.849 237.849,285.420 239.203 M128.179 242.782 C 128.206 243.190,128.438 243.719,128.694 243.959 C 129.295 244.520,129.268 244.066,128.631 242.934 C 128.182 242.134,128.134 242.118,128.179 242.782 M278.138 246.449 C 277.066 247.346,276.352 248.718,277.109 248.427 C 277.417 248.309,277.580 248.122,277.470 248.013 C 277.361 247.903,277.706 247.360,278.237 246.805 C 279.322 245.672,279.274 245.499,278.138 246.449 M313.059 246.611 C 313.059 247.132,314.038 248.050,314.976 248.410 C 315.324 248.544,315.535 248.775,315.445 248.924 C 315.355 249.073,315.505 249.403,315.780 249.656 C 316.193 250.038,316.279 250.006,316.279 249.468 C 316.279 248.929,314.867 247.293,314.583 247.502 C 314.358 247.668,313.417 247.110,313.417 246.810 C 313.417 246.623,313.603 246.584,313.830 246.725 C 314.086 246.883,314.146 246.823,313.988 246.567 C 313.646 246.013,313.059 246.041,313.059 246.611 M316.735 250.086 C 316.683 250.784,318.697 252.800,319.072 252.425 C 319.197 252.300,319.082 252.063,318.817 251.899 C 318.551 251.735,318.414 251.462,318.512 251.292 C 318.610 251.123,318.262 250.637,317.737 250.213 C 316.860 249.502,316.780 249.492,316.735 250.086 M271.472 253.088 C 271.131 253.347,270.957 253.664,271.085 253.792 C 271.213 253.920,271.060 254.025,270.746 254.025 C 270.431 254.025,270.074 254.339,269.952 254.722 C 269.830 255.106,269.417 255.519,269.034 255.641 C 268.650 255.763,268.336 256.021,268.336 256.216 C 268.336 256.411,268.811 256.290,269.390 255.947 C 269.970 255.605,270.356 255.183,270.249 255.009 C 270.141 254.835,270.391 254.604,270.805 254.496 C 271.218 254.388,271.556 254.101,271.556 253.859 C 271.556 253.617,271.919 253.244,272.361 253.031 C 272.847 252.796,272.953 252.637,272.630 252.630 C 272.335 252.622,271.814 252.829,271.472 253.088 M319.409 252.803 C 319.143 253.069,321.280 255.248,322.116 255.564 C 322.473 255.699,322.691 255.931,322.600 256.080 C 322.510 256.229,322.661 256.558,322.936 256.812 C 323.350 257.195,323.435 257.155,323.435 256.582 C 323.435 256.202,323.183 255.794,322.875 255.676 C 322.558 255.554,322.428 255.279,322.576 255.040 C 322.754 254.753,322.641 254.694,322.221 254.855 C 321.758 255.033,321.512 254.822,321.227 254.003 C 321.018 253.405,320.760 253.002,320.653 253.109 C 320.547 253.216,320.269 253.145,320.036 252.952 C 319.803 252.758,319.521 252.691,319.409 252.803 M129.117 253.459 C 129.284 253.672,129.511 254.088,129.621 254.383 C 129.731 254.678,129.801 254.504,129.775 253.995 C 129.750 253.487,129.523 253.071,129.271 253.071 C 128.993 253.071,128.933 253.224,129.117 253.459 M101.252 255.996 C 100.760 256.256,99.955 256.648,99.463 256.866 C 98.652 257.226,98.685 257.242,99.821 257.040 C 100.510 256.918,101.275 256.807,101.521 256.793 C 101.767 256.779,101.889 256.689,101.792 256.592 C 101.695 256.496,101.796 256.200,102.015 255.936 C 102.486 255.369,102.426 255.374,101.252 255.996 M64.874 256.798 C 71.136 256.853,81.279 256.853,87.414 256.798 C 93.549 256.743,88.426 256.698,76.029 256.698 C 63.631 256.698,58.612 256.743,64.874 256.798 M165.529 256.798 C 165.379 257.041,184.176 257.038,207.871 256.791 C 212.889 256.739,205.452 256.658,191.345 256.613 C 177.238 256.567,165.620 256.650,165.529 256.798 M323.892 257.233 C 323.839 257.937,325.850 259.958,326.227 259.581 C 326.353 259.455,326.238 259.219,325.972 259.055 C 325.707 258.890,325.590 258.594,325.712 258.397 C 325.834 258.199,325.526 257.935,325.028 257.809 C 324.529 257.684,324.211 257.437,324.320 257.259 C 324.430 257.082,324.390 256.856,324.230 256.758 C 324.071 256.660,323.919 256.873,323.892 257.233 M267.352 257.124 C 266.620 257.420,266.846 257.909,267.621 257.707 C 268.014 257.604,268.336 257.377,268.336 257.203 C 268.336 256.862,268.057 256.840,267.352 257.124 M264.490 260.087 C 264.047 260.457,263.685 260.942,263.685 261.167 C 263.685 261.392,264.063 261.167,264.526 260.668 C 264.988 260.169,265.497 259.879,265.657 260.024 C 265.816 260.168,265.831 260.085,265.689 259.839 C 265.375 259.294,265.463 259.275,264.490 260.087 M327.013 260.456 C 327.013 260.938,328.039 262.063,328.268 261.833 C 328.663 261.438,328.117 260.227,327.544 260.227 C 327.252 260.227,327.013 260.330,327.013 260.456 M361.487 261.002 C 361.783 261.297,362.111 261.538,362.217 261.538 C 362.324 261.538,362.318 261.297,362.205 261.002 C 362.091 260.707,361.763 260.465,361.475 260.465 C 361.020 260.465,361.022 260.536,361.487 261.002 M328.588 262.309 C 328.440 262.549,328.489 262.626,328.706 262.492 C 328.910 262.366,329.277 262.502,329.520 262.795 C 329.763 263.088,329.851 263.327,329.714 263.327 C 329.578 263.327,329.718 263.579,330.025 263.887 C 330.333 264.195,330.745 264.347,330.941 264.226 C 331.137 264.105,331.214 264.224,331.111 264.492 C 330.915 265.003,333.007 267.112,333.360 266.759 C 333.473 266.646,333.071 266.082,332.468 265.505 C 331.864 264.928,331.469 264.357,331.591 264.235 C 331.712 264.114,331.447 263.919,331.002 263.803 C 330.512 263.675,330.266 263.399,330.378 263.106 C 330.481 262.839,330.369 262.659,330.130 262.706 C 329.891 262.752,329.736 262.589,329.785 262.343 C 329.898 261.781,328.932 261.753,328.588 262.309 M364.222 263.543 C 364.222 263.649,364.463 263.978,364.758 264.273 C 365.224 264.738,365.295 264.740,365.295 264.286 C 365.295 263.997,365.054 263.669,364.758 263.556 C 364.463 263.443,364.222 263.437,364.222 263.543 M257.277 267.289 C 256.644 267.816,256.521 268.113,256.813 268.405 C 257.105 268.697,257.324 268.553,257.638 267.865 C 257.873 267.350,258.228 267.028,258.426 267.151 C 258.631 267.277,258.676 267.195,258.531 266.960 C 258.218 266.453,258.311 266.428,257.277 267.289 M334.168 267.618 C 334.168 267.816,334.329 267.979,334.526 267.979 C 334.723 267.979,334.843 268.160,334.794 268.381 C 334.745 268.602,334.906 268.857,335.152 268.948 C 335.882 269.215,335.660 268.189,334.884 267.704 C 334.460 267.439,334.168 267.404,334.168 267.618 M241.496 269.499 C 241.165 270.182,241.176 270.218,241.572 269.736 C 241.829 269.424,242.281 269.074,242.576 268.959 C 243.011 268.790,242.997 268.745,242.499 268.722 C 242.162 268.707,241.710 269.056,241.496 269.499 M337.055 270.102 C 336.533 270.433,340.896 275.134,341.725 275.134 C 341.921 275.134,341.989 275.284,341.876 275.467 C 341.606 275.903,342.288 276.317,342.777 276.015 C 343.002 275.876,342.711 275.450,342.066 274.975 C 341.466 274.533,341.094 274.039,341.239 273.879 C 341.384 273.719,341.274 273.721,340.995 273.883 C 340.620 274.101,340.545 274.027,340.708 273.601 C 340.864 273.196,340.775 273.083,340.411 273.223 C 340.126 273.332,339.893 273.244,339.893 273.026 C 339.893 272.808,339.642 272.630,339.335 272.630 C 339.028 272.630,338.866 272.486,338.975 272.309 C 339.084 272.133,338.922 271.893,338.616 271.775 C 338.309 271.658,338.159 271.399,338.281 271.201 C 338.404 271.003,338.236 270.841,337.908 270.841 C 337.525 270.841,337.385 270.649,337.518 270.304 C 337.757 269.681,337.736 269.672,337.055 270.102 M122.245 270.452 C 121.887 270.583,121.645 270.799,121.709 270.933 C 121.773 271.066,121.545 271.503,121.202 271.903 C 120.223 273.045,120.915 272.752,122.085 271.527 C 123.225 270.335,123.262 270.083,122.245 270.452 M251.750 273.080 C 251.578 273.739,251.601 273.741,252.261 273.144 C 253.087 272.396,253.088 272.391,252.441 272.391 C 252.160 272.391,251.850 272.701,251.750 273.080 M237.120 273.582 C 236.579 273.867,236.136 274.252,236.136 274.438 C 236.136 274.973,236.454 274.842,237.490 273.882 C 238.572 272.878,238.526 272.841,237.120 273.582 M375.053 274.419 C 375.553 274.812,376.083 275.134,376.229 275.134 C 376.376 275.134,376.125 274.812,375.671 274.419 C 375.217 274.025,374.688 273.703,374.495 273.703 C 374.301 273.703,374.553 274.025,375.053 274.419 M249.929 274.628 C 249.422 274.999,249.340 275.244,249.628 275.532 C 249.916 275.820,250.137 275.714,250.443 275.142 C 250.976 274.146,250.812 273.982,249.929 274.628 M35.152 274.656 C 34.906 274.755,34.705 274.993,34.705 275.185 C 34.705 275.377,34.855 275.442,35.038 275.328 C 35.221 275.215,35.472 275.286,35.596 275.486 C 35.719 275.686,36.012 275.845,36.247 275.839 C 36.481 275.833,36.387 275.662,36.039 275.459 C 35.690 275.256,35.499 274.939,35.613 274.754 C 35.838 274.390,35.819 274.386,35.152 274.656 M37.263 276.190 C 37.417 276.651,37.907 276.734,37.952 276.306 C 37.966 276.163,37.785 275.982,37.549 275.903 C 37.313 275.825,37.184 275.953,37.263 276.190 M232.916 276.229 C 232.916 276.437,232.787 276.528,232.631 276.431 C 232.474 276.334,232.111 276.406,231.825 276.590 C 231.439 276.839,231.531 276.893,232.181 276.802 C 232.918 276.698,233.758 275.850,233.125 275.850 C 233.010 275.850,232.916 276.020,232.916 276.229 M228.636 277.443 C 228.289 277.862,228.347 277.946,228.953 277.900 C 229.724 277.842,229.930 277.468,229.379 277.127 C 229.204 277.019,228.870 277.162,228.636 277.443 M343.828 277.639 C 343.828 278.087,344.208 278.087,344.902 277.639 C 345.336 277.358,345.284 277.291,344.633 277.286 C 344.191 277.283,343.828 277.442,343.828 277.639 " stroke="none" fill="#ec4c44" fill-rule="evenodd"></path><path id="path3" d="M249.016 195.819 C 249.016 195.880,249.539 196.403,250.179 196.981 L 251.342 198.032 250.291 196.869 C 249.311 195.786,249.016 195.542,249.016 195.819 M253.488 200.358 C 254.257 201.145,254.966 201.789,255.065 201.789 C 255.163 201.789,254.615 201.145,253.846 200.358 C 253.078 199.571,252.368 198.927,252.270 198.927 C 252.171 198.927,252.720 199.571,253.488 200.358 M256.172 202.974 C 256.172 203.036,256.695 203.559,257.335 204.137 L 258.497 205.188 257.446 204.025 C 256.467 202.941,256.172 202.698,256.172 202.974 M260.644 207.513 C 261.413 208.301,262.122 208.945,262.220 208.945 C 262.319 208.945,261.770 208.301,261.002 207.513 C 260.233 206.726,259.524 206.082,259.425 206.082 C 259.327 206.082,259.875 206.726,260.644 207.513 M263.327 210.130 C 263.327 210.191,263.851 210.715,264.490 211.293 L 265.653 212.343 264.602 211.181 C 263.623 210.097,263.327 209.853,263.327 210.130 M267.800 214.669 C 268.568 215.456,269.278 216.100,269.376 216.100 C 269.474 216.100,268.926 215.456,268.157 214.669 C 267.389 213.882,266.679 213.238,266.581 213.238 C 266.483 213.238,267.031 213.882,267.800 214.669 M248.026 215.742 C 248.026 216.431,248.099 216.713,248.189 216.369 C 248.279 216.024,248.279 215.461,248.189 215.116 C 248.099 214.772,248.026 215.054,248.026 215.742 M270.483 217.285 C 270.483 217.347,271.006 217.870,271.646 218.448 L 272.809 219.499 271.758 218.336 C 270.778 217.252,270.483 217.009,270.483 217.285 M274.955 221.825 C 275.724 222.612,276.433 223.256,276.532 223.256 C 276.630 223.256,276.082 222.612,275.313 221.825 C 274.544 221.038,273.835 220.394,273.737 220.394 C 273.638 220.394,274.187 221.038,274.955 221.825 M277.639 224.441 C 277.639 224.503,278.162 225.026,278.801 225.604 L 279.964 226.655 278.913 225.492 C 277.934 224.408,277.639 224.165,277.639 224.441 M282.111 228.980 C 282.880 229.767,283.589 230.411,283.687 230.411 C 283.786 230.411,283.237 229.767,282.469 228.980 C 281.700 228.193,280.991 227.549,280.892 227.549 C 280.794 227.549,281.342 228.193,282.111 228.980 M284.794 231.597 C 284.794 231.658,285.318 232.182,285.957 232.760 L 287.120 233.810 286.069 232.648 C 285.089 231.564,284.794 231.320,284.794 231.597 M286.136 237.913 C 284.911 239.154,284.146 240.392,285.283 239.292 C 285.552 239.032,286.196 238.458,286.714 238.017 C 287.233 237.575,287.657 237.052,287.657 236.854 C 287.657 236.369,287.665 236.363,286.136 237.913 M283.440 240.630 C 282.990 241.110,282.778 241.503,282.967 241.503 C 283.407 241.503,284.436 240.482,284.436 240.046 C 284.436 239.595,284.378 239.629,283.440 240.630 M279.875 244.207 C 279.348 244.779,279.304 245.081,279.747 245.081 C 280.052 245.081,280.624 244.004,280.420 243.813 C 280.366 243.763,280.121 243.940,279.875 244.207 M276.284 247.786 C 275.835 248.266,275.622 248.658,275.812 248.658 C 276.252 248.658,277.281 247.638,277.281 247.202 C 277.281 246.750,277.223 246.785,276.284 247.786 M271.825 252.224 C 270.600 253.465,269.835 254.703,270.972 253.603 C 271.241 253.343,271.885 252.769,272.403 252.328 C 272.921 251.886,273.345 251.363,273.345 251.165 C 273.345 250.680,273.354 250.675,271.825 252.224 M269.129 254.941 C 268.679 255.421,268.466 255.814,268.656 255.814 C 269.096 255.814,270.125 254.794,270.125 254.357 C 270.125 253.906,270.067 253.940,269.129 254.941 M264.669 259.380 C 263.444 260.621,262.679 261.858,263.816 260.759 C 264.085 260.499,264.729 259.925,265.248 259.484 C 265.766 259.042,266.190 258.519,266.190 258.321 C 266.190 257.836,266.198 257.830,264.669 259.380 M261.973 262.097 C 261.523 262.577,261.311 262.970,261.500 262.970 C 261.941 262.970,262.970 261.949,262.970 261.513 C 262.970 261.062,262.911 261.096,261.973 262.097 M257.513 266.535 C 256.288 267.777,255.523 269.014,256.661 267.915 C 256.930 267.655,257.574 267.081,258.092 266.639 C 258.610 266.198,259.034 265.675,259.034 265.476 C 259.034 264.992,259.042 264.986,257.513 266.535 M254.817 269.253 C 254.368 269.733,254.155 270.125,254.345 270.125 C 254.785 270.125,255.814 269.105,255.814 268.669 C 255.814 268.217,255.756 268.251,254.817 269.253 M249.284 274.790 C 246.965 277.160,246.434 277.996,247.248 277.996 C 247.457 277.996,247.545 277.864,247.446 277.702 C 247.346 277.541,247.537 277.164,247.872 276.866 C 248.206 276.568,248.816 275.935,249.226 275.461 C 249.637 274.986,250.402 274.236,250.926 273.795 C 251.450 273.353,251.878 272.830,251.878 272.632 C 251.878 272.125,251.951 272.065,249.284 274.790 " stroke="none" fill="#e82824" fill-rule="evenodd"></path><path id="path4" d="M249.016 195.819 C 249.016 195.880,249.539 196.403,250.179 196.981 L 251.342 198.032 250.291 196.869 C 249.311 195.786,249.016 195.542,249.016 195.819 M253.488 200.358 C 254.257 201.145,254.966 201.789,255.065 201.789 C 255.163 201.789,254.615 201.145,253.846 200.358 C 253.078 199.571,252.368 198.927,252.270 198.927 C 252.171 198.927,252.720 199.571,253.488 200.358 M256.172 202.974 C 256.172 203.036,256.695 203.559,257.335 204.137 L 258.497 205.188 257.446 204.025 C 256.467 202.941,256.172 202.698,256.172 202.974 M260.644 207.513 C 261.413 208.301,262.122 208.945,262.220 208.945 C 262.319 208.945,261.770 208.301,261.002 207.513 C 260.233 206.726,259.524 206.082,259.425 206.082 C 259.327 206.082,259.875 206.726,260.644 207.513 M263.327 210.130 C 263.327 210.191,263.851 210.715,264.490 211.293 L 265.653 212.343 264.602 211.181 C 263.623 210.097,263.327 209.853,263.327 210.130 M267.800 214.669 C 268.568 215.456,269.278 216.100,269.376 216.100 C 269.474 216.100,268.926 215.456,268.157 214.669 C 267.389 213.882,266.679 213.238,266.581 213.238 C 266.483 213.238,267.031 213.882,267.800 214.669 M248.026 215.742 C 248.026 216.431,248.099 216.713,248.189 216.369 C 248.279 216.024,248.279 215.461,248.189 215.116 C 248.099 214.772,248.026 215.054,248.026 215.742 M270.483 217.285 C 270.483 217.347,271.006 217.870,271.646 218.448 L 272.809 219.499 271.758 218.336 C 270.778 217.252,270.483 217.009,270.483 217.285 M274.955 221.825 C 275.724 222.612,276.433 223.256,276.532 223.256 C 276.630 223.256,276.082 222.612,275.313 221.825 C 274.544 221.038,273.835 220.394,273.737 220.394 C 273.638 220.394,274.187 221.038,274.955 221.825 M277.639 224.441 C 277.639 224.503,278.162 225.026,278.801 225.604 L 279.964 226.655 278.913 225.492 C 277.934 224.408,277.639 224.165,277.639 224.441 M282.111 228.980 C 282.880 229.767,283.589 230.411,283.687 230.411 C 283.786 230.411,283.237 229.767,282.469 228.980 C 281.700 228.193,280.991 227.549,280.892 227.549 C 280.794 227.549,281.342 228.193,282.111 228.980 M284.794 231.597 C 284.794 231.658,285.318 232.182,285.957 232.760 L 287.120 233.810 286.069 232.648 C 285.089 231.564,284.794 231.320,284.794 231.597 M286.136 237.913 C 284.911 239.154,284.146 240.392,285.283 239.292 C 285.552 239.032,286.196 238.458,286.714 238.017 C 287.233 237.575,287.657 237.052,287.657 236.854 C 287.657 236.369,287.665 236.363,286.136 237.913 M283.440 240.630 C 282.990 241.110,282.778 241.503,282.967 241.503 C 283.407 241.503,284.436 240.482,284.436 240.046 C 284.436 239.595,284.378 239.629,283.440 240.630 M279.875 244.207 C 279.348 244.779,279.304 245.081,279.747 245.081 C 280.052 245.081,280.624 244.004,280.420 243.813 C 280.366 243.763,280.121 243.940,279.875 244.207 M276.284 247.786 C 275.835 248.266,275.622 248.658,275.812 248.658 C 276.252 248.658,277.281 247.638,277.281 247.202 C 277.281 246.750,277.223 246.785,276.284 247.786 M271.825 252.224 C 270.600 253.465,269.835 254.703,270.972 253.603 C 271.241 253.343,271.885 252.769,272.403 252.328 C 272.921 251.886,273.345 251.363,273.345 251.165 C 273.345 250.680,273.354 250.675,271.825 252.224 M269.129 254.941 C 268.679 255.421,268.466 255.814,268.656 255.814 C 269.096 255.814,270.125 254.794,270.125 254.357 C 270.125 253.906,270.067 253.940,269.129 254.941 M264.669 259.380 C 263.444 260.621,262.679 261.858,263.816 260.759 C 264.085 260.499,264.729 259.925,265.248 259.484 C 265.766 259.042,266.190 258.519,266.190 258.321 C 266.190 257.836,266.198 257.830,264.669 259.380 M261.973 262.097 C 261.523 262.577,261.311 262.970,261.500 262.970 C 261.941 262.970,262.970 261.949,262.970 261.513 C 262.970 261.062,262.911 261.096,261.973 262.097 M257.513 266.535 C 256.288 267.777,255.523 269.014,256.661 267.915 C 256.930 267.655,257.574 267.081,258.092 266.639 C 258.610 266.198,259.034 265.675,259.034 265.476 C 259.034 264.992,259.042 264.986,257.513 266.535 M254.817 269.253 C 254.368 269.733,254.155 270.125,254.345 270.125 C 254.785 270.125,255.814 269.105,255.814 268.669 C 255.814 268.217,255.756 268.251,254.817 269.253 M249.284 274.790 C 246.965 277.160,246.434 277.996,247.248 277.996 C 247.457 277.996,247.545 277.864,247.446 277.702 C 247.346 277.541,247.537 277.164,247.872 276.866 C 248.206 276.568,248.816 275.935,249.226 275.461 C 249.637 274.986,250.402 274.236,250.926 273.795 C 251.450 273.353,251.878 272.830,251.878 272.632 C 251.878 272.125,251.951 272.065,249.284 274.790 " stroke="none" fill="#e82824" fill-rule="evenodd"></path></g></svg>